<mxfile host="app.diagrams.net" agent="Mozilla/5.0 (Windows NT 10.0; Win64; x64) AppleWebKit/537.36 (KHTML, like Gecko) Chrome/134.0.0.0 Safari/537.36 Edg/134.0.0.0" version="24.8.0">
  <diagram id="diagram_1" name="Page-1">
    <mxGraphModel dx="2524" dy="830" grid="1" gridSize="10" guides="1" tooltips="1" connect="1" arrows="1" fold="1" page="1" pageScale="1" pageWidth="850" pageHeight="1100" math="0" shadow="0">
      <root>
        <mxCell id="0" />
        <mxCell id="1" parent="0" />
        <mxCell id="0pXvA0TbID5tQFG2-Wnw-1" value="客户" style="rounded=0;whiteSpace=wrap;html=1;" vertex="1" parent="1">
          <mxGeometry x="25" y="290" width="120" height="60" as="geometry" />
        </mxCell>
        <mxCell id="0pXvA0TbID5tQFG2-Wnw-2" value="&lt;div&gt;&lt;u&gt;CustomerID&amp;nbsp;&lt;/u&gt;&lt;/div&gt;" style="ellipse;whiteSpace=wrap;html=1;" vertex="1" parent="1">
          <mxGeometry x="40" y="160" width="90" height="50" as="geometry" />
        </mxCell>
        <mxCell id="0pXvA0TbID5tQFG2-Wnw-3" value="&lt;div&gt;Name&lt;/div&gt;" style="ellipse;whiteSpace=wrap;html=1;" vertex="1" parent="1">
          <mxGeometry x="-110" y="340" width="90" height="40" as="geometry" />
        </mxCell>
        <mxCell id="0pXvA0TbID5tQFG2-Wnw-4" value="&lt;div&gt;ContactName&lt;/div&gt;" style="ellipse;whiteSpace=wrap;html=1;" vertex="1" parent="1">
          <mxGeometry x="-70" y="400" width="90" height="40" as="geometry" />
        </mxCell>
        <mxCell id="0pXvA0TbID5tQFG2-Wnw-5" value="Phone" style="ellipse;whiteSpace=wrap;html=1;" vertex="1" parent="1">
          <mxGeometry x="-70" y="190" width="90" height="50" as="geometry" />
        </mxCell>
        <mxCell id="0pXvA0TbID5tQFG2-Wnw-6" value="Email" style="ellipse;whiteSpace=wrap;html=1;" vertex="1" parent="1">
          <mxGeometry x="190" y="350" width="80" height="40" as="geometry" />
        </mxCell>
        <mxCell id="0pXvA0TbID5tQFG2-Wnw-7" value="Address" style="ellipse;whiteSpace=wrap;html=1;" vertex="1" parent="1">
          <mxGeometry x="105" y="460" width="80" height="30" as="geometry" />
        </mxCell>
        <mxCell id="0pXvA0TbID5tQFG2-Wnw-8" value="City" style="ellipse;whiteSpace=wrap;html=1;" vertex="1" parent="1">
          <mxGeometry x="150" y="400" width="80" height="40" as="geometry" />
        </mxCell>
        <mxCell id="0pXvA0TbID5tQFG2-Wnw-9" value="State" style="ellipse;whiteSpace=wrap;html=1;" vertex="1" parent="1">
          <mxGeometry x="-120" y="260" width="90" height="50" as="geometry" />
        </mxCell>
        <mxCell id="0pXvA0TbID5tQFG2-Wnw-10" value="PostalCode" style="ellipse;whiteSpace=wrap;html=1;" vertex="1" parent="1">
          <mxGeometry x="150" y="210" width="90" height="40" as="geometry" />
        </mxCell>
        <mxCell id="0pXvA0TbID5tQFG2-Wnw-11" value="Country" style="ellipse;whiteSpace=wrap;html=1;" vertex="1" parent="1">
          <mxGeometry x="190" y="270" width="80" height="40" as="geometry" />
        </mxCell>
        <mxCell id="0pXvA0TbID5tQFG2-Wnw-13" value="订单" style="rounded=0;whiteSpace=wrap;html=1;" vertex="1" parent="1">
          <mxGeometry x="180" y="710" width="105" height="60" as="geometry" />
        </mxCell>
        <mxCell id="0pXvA0TbID5tQFG2-Wnw-14" value="OrderID" style="ellipse;whiteSpace=wrap;html=1;" vertex="1" parent="1">
          <mxGeometry x="460" y="250" width="90" height="50" as="geometry" />
        </mxCell>
        <mxCell id="0pXvA0TbID5tQFG2-Wnw-15" value="Quantity" style="ellipse;whiteSpace=wrap;html=1;" vertex="1" parent="1">
          <mxGeometry x="329.29" y="428" width="90" height="50" as="geometry" />
        </mxCell>
        <mxCell id="0pXvA0TbID5tQFG2-Wnw-16" value="EndDate" style="ellipse;whiteSpace=wrap;html=1;" vertex="1" parent="1">
          <mxGeometry x="610" y="480" width="90" height="50" as="geometry" />
        </mxCell>
        <mxCell id="0pXvA0TbID5tQFG2-Wnw-17" value="StartDate" style="ellipse;whiteSpace=wrap;html=1;" vertex="1" parent="1">
          <mxGeometry x="480" y="510" width="90" height="50" as="geometry" />
        </mxCell>
        <mxCell id="0pXvA0TbID5tQFG2-Wnw-18" value="Notes" style="ellipse;whiteSpace=wrap;html=1;" vertex="1" parent="1">
          <mxGeometry x="225" y="840" width="90" height="50" as="geometry" />
        </mxCell>
        <mxCell id="0pXvA0TbID5tQFG2-Wnw-19" value="ShippingAddress" style="ellipse;whiteSpace=wrap;html=1;" vertex="1" parent="1">
          <mxGeometry x="315" y="780" width="145" height="50" as="geometry" />
        </mxCell>
        <mxCell id="0pXvA0TbID5tQFG2-Wnw-20" value="Status" style="ellipse;whiteSpace=wrap;html=1;" vertex="1" parent="1">
          <mxGeometry x="335" y="700" width="90" height="50" as="geometry" />
        </mxCell>
        <mxCell id="0pXvA0TbID5tQFG2-Wnw-21" value="TotalAmount" style="ellipse;whiteSpace=wrap;html=1;" vertex="1" parent="1">
          <mxGeometry x="105" y="810" width="90" height="50" as="geometry" />
        </mxCell>
        <mxCell id="0pXvA0TbID5tQFG2-Wnw-22" value="OrderDate" style="ellipse;whiteSpace=wrap;html=1;" vertex="1" parent="1">
          <mxGeometry x="55" y="730" width="90" height="50" as="geometry" />
        </mxCell>
        <mxCell id="0pXvA0TbID5tQFG2-Wnw-23" value="CustomerID" style="ellipse;whiteSpace=wrap;html=1;" vertex="1" parent="1">
          <mxGeometry x="60" y="640" width="90" height="50" as="geometry" />
        </mxCell>
        <mxCell id="0pXvA0TbID5tQFG2-Wnw-24" value="OrderID" style="ellipse;whiteSpace=wrap;html=1;" vertex="1" parent="1">
          <mxGeometry x="220" y="620" width="90" height="50" as="geometry" />
        </mxCell>
        <mxCell id="0pXvA0TbID5tQFG2-Wnw-25" value="ScheduleID" style="ellipse;whiteSpace=wrap;html=1;" vertex="1" parent="1">
          <mxGeometry x="580" y="280" width="90" height="50" as="geometry" />
        </mxCell>
        <mxCell id="0pXvA0TbID5tQFG2-Wnw-26" value="" style="endArrow=none;dashed=1;html=1;dashPattern=1 3;strokeWidth=2;rounded=0;" edge="1" parent="1">
          <mxGeometry width="50" height="50" relative="1" as="geometry">
            <mxPoint x="70" y="678" as="sourcePoint" />
            <mxPoint x="130" y="678" as="targetPoint" />
            <Array as="points" />
          </mxGeometry>
        </mxCell>
        <mxCell id="0pXvA0TbID5tQFG2-Wnw-27" value="排产" style="rounded=0;whiteSpace=wrap;html=1;" vertex="1" parent="1">
          <mxGeometry x="465" y="390" width="120" height="60" as="geometry" />
        </mxCell>
        <mxCell id="0pXvA0TbID5tQFG2-Wnw-28" value="Status" style="ellipse;whiteSpace=wrap;html=1;" vertex="1" parent="1">
          <mxGeometry x="350" y="330" width="90" height="50" as="geometry" />
        </mxCell>
        <mxCell id="0pXvA0TbID5tQFG2-Wnw-29" value="Notes" style="ellipse;whiteSpace=wrap;html=1;" vertex="1" parent="1">
          <mxGeometry x="610" y="390" width="90" height="50" as="geometry" />
        </mxCell>
        <mxCell id="0pXvA0TbID5tQFG2-Wnw-33" value="" style="endArrow=none;dashed=1;html=1;dashPattern=1 3;strokeWidth=2;rounded=0;" edge="1" parent="1">
          <mxGeometry width="50" height="50" relative="1" as="geometry">
            <mxPoint x="475" y="284.5" as="sourcePoint" />
            <mxPoint x="535" y="284.5" as="targetPoint" />
            <Array as="points" />
          </mxGeometry>
        </mxCell>
        <mxCell id="0pXvA0TbID5tQFG2-Wnw-34" value="拥有" style="rhombus;whiteSpace=wrap;html=1;rotation=-45;" vertex="1" parent="1">
          <mxGeometry x="90" y="518" width="60" height="80" as="geometry" />
        </mxCell>
        <mxCell id="0pXvA0TbID5tQFG2-Wnw-38" value="" style="endArrow=none;html=1;rounded=0;entryX=0.5;entryY=1;entryDx=0;entryDy=0;exitX=0.5;exitY=0;exitDx=0;exitDy=0;" edge="1" parent="1" source="0pXvA0TbID5tQFG2-Wnw-34" target="0pXvA0TbID5tQFG2-Wnw-1">
          <mxGeometry width="50" height="50" relative="1" as="geometry">
            <mxPoint x="30" y="440" as="sourcePoint" />
            <mxPoint x="80" y="390" as="targetPoint" />
          </mxGeometry>
        </mxCell>
        <mxCell id="0pXvA0TbID5tQFG2-Wnw-39" value="" style="endArrow=none;html=1;rounded=0;entryX=0.5;entryY=1;entryDx=0;entryDy=0;exitX=0.5;exitY=0;exitDx=0;exitDy=0;" edge="1" parent="1" source="0pXvA0TbID5tQFG2-Wnw-13" target="0pXvA0TbID5tQFG2-Wnw-34">
          <mxGeometry width="50" height="50" relative="1" as="geometry">
            <mxPoint x="235" y="680" as="sourcePoint" />
            <mxPoint x="245" y="590" as="targetPoint" />
          </mxGeometry>
        </mxCell>
        <mxCell id="0pXvA0TbID5tQFG2-Wnw-40" value="1" style="text;html=1;align=center;verticalAlign=middle;resizable=0;points=[];autosize=1;strokeColor=none;fillColor=none;" vertex="1" parent="1">
          <mxGeometry x="55" y="428" width="30" height="30" as="geometry" />
        </mxCell>
        <mxCell id="0pXvA0TbID5tQFG2-Wnw-41" value="n" style="text;html=1;align=center;verticalAlign=middle;resizable=0;points=[];autosize=1;strokeColor=none;fillColor=none;" vertex="1" parent="1">
          <mxGeometry x="165" y="590" width="30" height="30" as="geometry" />
        </mxCell>
        <mxCell id="0pXvA0TbID5tQFG2-Wnw-42" value="" style="endArrow=none;html=1;rounded=0;entryX=0.5;entryY=1;entryDx=0;entryDy=0;exitX=1;exitY=0;exitDx=0;exitDy=0;" edge="1" parent="1" source="0pXvA0TbID5tQFG2-Wnw-13">
          <mxGeometry width="50" height="50" relative="1" as="geometry">
            <mxPoint x="285" y="750" as="sourcePoint" />
            <mxPoint x="354.5132573722708" y="627.2875" as="targetPoint" />
          </mxGeometry>
        </mxCell>
        <mxCell id="0pXvA0TbID5tQFG2-Wnw-43" value="" style="endArrow=none;html=1;rounded=0;exitX=0.5;exitY=0;exitDx=0;exitDy=0;entryX=0;entryY=0.5;entryDx=0;entryDy=0;" edge="1" parent="1" source="0pXvA0TbID5tQFG2-Wnw-54" target="0pXvA0TbID5tQFG2-Wnw-27">
          <mxGeometry width="50" height="50" relative="1" as="geometry">
            <mxPoint x="431.7367426277292" y="582.7025" as="sourcePoint" />
            <mxPoint x="420" y="500" as="targetPoint" />
          </mxGeometry>
        </mxCell>
        <mxCell id="0pXvA0TbID5tQFG2-Wnw-46" value="n" style="text;html=1;align=center;verticalAlign=middle;resizable=0;points=[];autosize=1;strokeColor=none;fillColor=none;" vertex="1" parent="1">
          <mxGeometry x="420" y="450" width="30" height="30" as="geometry" />
        </mxCell>
        <mxCell id="0pXvA0TbID5tQFG2-Wnw-54" value="拥有" style="rhombus;whiteSpace=wrap;html=1;rotation=40;" vertex="1" parent="1">
          <mxGeometry x="355.72" y="540" width="63.57" height="100" as="geometry" />
        </mxCell>
        <mxCell id="0pXvA0TbID5tQFG2-Wnw-56" value="" style="endArrow=none;html=1;rounded=0;" edge="1" parent="1">
          <mxGeometry width="50" height="50" relative="1" as="geometry">
            <mxPoint y="400" as="sourcePoint" />
            <mxPoint x="50" y="350" as="targetPoint" />
          </mxGeometry>
        </mxCell>
        <mxCell id="0pXvA0TbID5tQFG2-Wnw-57" value="" style="endArrow=none;html=1;rounded=0;entryX=0;entryY=0.75;entryDx=0;entryDy=0;" edge="1" parent="1" target="0pXvA0TbID5tQFG2-Wnw-1">
          <mxGeometry width="50" height="50" relative="1" as="geometry">
            <mxPoint x="-30" y="350" as="sourcePoint" />
            <mxPoint x="20" y="320" as="targetPoint" />
          </mxGeometry>
        </mxCell>
        <mxCell id="0pXvA0TbID5tQFG2-Wnw-58" value="" style="endArrow=none;html=1;rounded=0;entryX=0;entryY=0.25;entryDx=0;entryDy=0;" edge="1" parent="1" target="0pXvA0TbID5tQFG2-Wnw-1">
          <mxGeometry width="50" height="50" relative="1" as="geometry">
            <mxPoint x="-30" y="290" as="sourcePoint" />
            <mxPoint x="20" y="240" as="targetPoint" />
          </mxGeometry>
        </mxCell>
        <mxCell id="0pXvA0TbID5tQFG2-Wnw-59" value="" style="endArrow=none;html=1;rounded=0;exitX=1;exitY=1;exitDx=0;exitDy=0;entryX=0.25;entryY=0;entryDx=0;entryDy=0;" edge="1" parent="1" source="0pXvA0TbID5tQFG2-Wnw-5" target="0pXvA0TbID5tQFG2-Wnw-1">
          <mxGeometry width="50" height="50" relative="1" as="geometry">
            <mxPoint x="40" y="270" as="sourcePoint" />
            <mxPoint x="90" y="220" as="targetPoint" />
          </mxGeometry>
        </mxCell>
        <mxCell id="0pXvA0TbID5tQFG2-Wnw-60" value="" style="endArrow=none;html=1;rounded=0;entryX=0.5;entryY=1;entryDx=0;entryDy=0;exitX=0.5;exitY=0;exitDx=0;exitDy=0;" edge="1" parent="1" source="0pXvA0TbID5tQFG2-Wnw-1" target="0pXvA0TbID5tQFG2-Wnw-2">
          <mxGeometry width="50" height="50" relative="1" as="geometry">
            <mxPoint x="80" y="270" as="sourcePoint" />
            <mxPoint x="130" y="220" as="targetPoint" />
          </mxGeometry>
        </mxCell>
        <mxCell id="0pXvA0TbID5tQFG2-Wnw-61" value="" style="endArrow=none;html=1;rounded=0;entryX=0.289;entryY=0.95;entryDx=0;entryDy=0;entryPerimeter=0;exitX=0.75;exitY=0;exitDx=0;exitDy=0;" edge="1" parent="1" source="0pXvA0TbID5tQFG2-Wnw-1" target="0pXvA0TbID5tQFG2-Wnw-10">
          <mxGeometry width="50" height="50" relative="1" as="geometry">
            <mxPoint x="100" y="260" as="sourcePoint" />
            <mxPoint x="150" y="210" as="targetPoint" />
          </mxGeometry>
        </mxCell>
        <mxCell id="0pXvA0TbID5tQFG2-Wnw-62" value="" style="endArrow=none;html=1;rounded=0;exitX=0.313;exitY=-0.033;exitDx=0;exitDy=0;exitPerimeter=0;entryX=0.608;entryY=1.017;entryDx=0;entryDy=0;entryPerimeter=0;" edge="1" parent="1" source="0pXvA0TbID5tQFG2-Wnw-7" target="0pXvA0TbID5tQFG2-Wnw-1">
          <mxGeometry width="50" height="50" relative="1" as="geometry">
            <mxPoint x="110" y="430" as="sourcePoint" />
            <mxPoint x="160" y="380" as="targetPoint" />
          </mxGeometry>
        </mxCell>
        <mxCell id="0pXvA0TbID5tQFG2-Wnw-63" value="" style="endArrow=none;html=1;rounded=0;exitX=0.075;exitY=0.25;exitDx=0;exitDy=0;exitPerimeter=0;entryX=0.75;entryY=1;entryDx=0;entryDy=0;" edge="1" parent="1" source="0pXvA0TbID5tQFG2-Wnw-8" target="0pXvA0TbID5tQFG2-Wnw-1">
          <mxGeometry width="50" height="50" relative="1" as="geometry">
            <mxPoint x="150" y="380" as="sourcePoint" />
            <mxPoint x="200" y="330" as="targetPoint" />
          </mxGeometry>
        </mxCell>
        <mxCell id="0pXvA0TbID5tQFG2-Wnw-64" value="" style="endArrow=none;html=1;rounded=0;exitX=0;exitY=0.5;exitDx=0;exitDy=0;" edge="1" parent="1" source="0pXvA0TbID5tQFG2-Wnw-6" target="0pXvA0TbID5tQFG2-Wnw-1">
          <mxGeometry width="50" height="50" relative="1" as="geometry">
            <mxPoint x="160" y="370" as="sourcePoint" />
            <mxPoint x="210" y="320" as="targetPoint" />
          </mxGeometry>
        </mxCell>
        <mxCell id="0pXvA0TbID5tQFG2-Wnw-65" value="" style="endArrow=none;html=1;rounded=0;entryX=0;entryY=0.5;entryDx=0;entryDy=0;exitX=1;exitY=0.5;exitDx=0;exitDy=0;" edge="1" parent="1" source="0pXvA0TbID5tQFG2-Wnw-1" target="0pXvA0TbID5tQFG2-Wnw-11">
          <mxGeometry width="50" height="50" relative="1" as="geometry">
            <mxPoint x="150" y="320" as="sourcePoint" />
            <mxPoint x="170" y="300" as="targetPoint" />
          </mxGeometry>
        </mxCell>
        <mxCell id="0pXvA0TbID5tQFG2-Wnw-66" value="" style="endArrow=none;html=1;rounded=0;exitX=0.978;exitY=0.7;exitDx=0;exitDy=0;exitPerimeter=0;entryX=0;entryY=0;entryDx=0;entryDy=0;" edge="1" parent="1" source="0pXvA0TbID5tQFG2-Wnw-23" target="0pXvA0TbID5tQFG2-Wnw-13">
          <mxGeometry width="50" height="50" relative="1" as="geometry">
            <mxPoint x="150" y="720" as="sourcePoint" />
            <mxPoint x="200" y="670" as="targetPoint" />
          </mxGeometry>
        </mxCell>
        <mxCell id="0pXvA0TbID5tQFG2-Wnw-67" value="" style="endArrow=none;html=1;rounded=0;entryX=0;entryY=0.5;entryDx=0;entryDy=0;exitX=1;exitY=0.5;exitDx=0;exitDy=0;" edge="1" parent="1" source="0pXvA0TbID5tQFG2-Wnw-22" target="0pXvA0TbID5tQFG2-Wnw-13">
          <mxGeometry width="50" height="50" relative="1" as="geometry">
            <mxPoint x="60" y="840" as="sourcePoint" />
            <mxPoint x="110" y="790" as="targetPoint" />
          </mxGeometry>
        </mxCell>
        <mxCell id="0pXvA0TbID5tQFG2-Wnw-68" value="" style="endArrow=none;html=1;rounded=0;exitX=0.733;exitY=-0.02;exitDx=0;exitDy=0;exitPerimeter=0;" edge="1" parent="1" source="0pXvA0TbID5tQFG2-Wnw-21">
          <mxGeometry width="50" height="50" relative="1" as="geometry">
            <mxPoint x="180" y="820" as="sourcePoint" />
            <mxPoint x="230" y="770" as="targetPoint" />
          </mxGeometry>
        </mxCell>
        <mxCell id="0pXvA0TbID5tQFG2-Wnw-69" value="" style="endArrow=none;html=1;rounded=0;entryX=0.61;entryY=1.033;entryDx=0;entryDy=0;entryPerimeter=0;exitX=0.378;exitY=0.1;exitDx=0;exitDy=0;exitPerimeter=0;" edge="1" parent="1" source="0pXvA0TbID5tQFG2-Wnw-18" target="0pXvA0TbID5tQFG2-Wnw-13">
          <mxGeometry width="50" height="50" relative="1" as="geometry">
            <mxPoint x="210" y="860" as="sourcePoint" />
            <mxPoint x="260" y="810" as="targetPoint" />
          </mxGeometry>
        </mxCell>
        <mxCell id="0pXvA0TbID5tQFG2-Wnw-70" value="" style="endArrow=none;html=1;rounded=0;entryX=0;entryY=0;entryDx=0;entryDy=0;" edge="1" parent="1" target="0pXvA0TbID5tQFG2-Wnw-19">
          <mxGeometry width="50" height="50" relative="1" as="geometry">
            <mxPoint x="270" y="770" as="sourcePoint" />
            <mxPoint x="330" y="770" as="targetPoint" />
          </mxGeometry>
        </mxCell>
        <mxCell id="0pXvA0TbID5tQFG2-Wnw-71" value="" style="endArrow=none;html=1;rounded=0;entryX=0;entryY=0.5;entryDx=0;entryDy=0;" edge="1" parent="1" target="0pXvA0TbID5tQFG2-Wnw-20">
          <mxGeometry width="50" height="50" relative="1" as="geometry">
            <mxPoint x="290" y="730" as="sourcePoint" />
            <mxPoint x="390" y="670" as="targetPoint" />
          </mxGeometry>
        </mxCell>
        <mxCell id="0pXvA0TbID5tQFG2-Wnw-72" value="" style="endArrow=none;html=1;rounded=0;entryX=0.422;entryY=1.02;entryDx=0;entryDy=0;entryPerimeter=0;" edge="1" parent="1" source="0pXvA0TbID5tQFG2-Wnw-13" target="0pXvA0TbID5tQFG2-Wnw-24">
          <mxGeometry width="50" height="50" relative="1" as="geometry">
            <mxPoint x="232.5" y="689.2893218813452" as="sourcePoint" />
            <mxPoint x="232.5" y="639.2893218813452" as="targetPoint" />
            <Array as="points">
              <mxPoint x="250" y="690" />
            </Array>
          </mxGeometry>
        </mxCell>
        <mxCell id="0pXvA0TbID5tQFG2-Wnw-73" value="1" style="text;html=1;align=center;verticalAlign=middle;resizable=0;points=[];autosize=1;strokeColor=none;fillColor=none;" vertex="1" parent="1">
          <mxGeometry x="325" y="648" width="30" height="30" as="geometry" />
        </mxCell>
        <mxCell id="0pXvA0TbID5tQFG2-Wnw-74" value="" style="endArrow=none;html=1;rounded=0;entryX=0.5;entryY=1;entryDx=0;entryDy=0;exitX=0.25;exitY=0;exitDx=0;exitDy=0;" edge="1" parent="1" source="0pXvA0TbID5tQFG2-Wnw-27" target="0pXvA0TbID5tQFG2-Wnw-14">
          <mxGeometry width="50" height="50" relative="1" as="geometry">
            <mxPoint x="470" y="380" as="sourcePoint" />
            <mxPoint x="520" y="330" as="targetPoint" />
          </mxGeometry>
        </mxCell>
        <mxCell id="0pXvA0TbID5tQFG2-Wnw-75" value="" style="endArrow=none;html=1;rounded=0;exitX=1;exitY=0;exitDx=0;exitDy=0;entryX=0;entryY=0.383;entryDx=0;entryDy=0;entryPerimeter=0;" edge="1" parent="1" source="0pXvA0TbID5tQFG2-Wnw-15" target="0pXvA0TbID5tQFG2-Wnw-27">
          <mxGeometry width="50" height="50" relative="1" as="geometry">
            <mxPoint x="450" y="410" as="sourcePoint" />
            <mxPoint x="500" y="360" as="targetPoint" />
          </mxGeometry>
        </mxCell>
        <mxCell id="0pXvA0TbID5tQFG2-Wnw-76" value="" style="endArrow=none;html=1;rounded=0;exitX=0;exitY=0;exitDx=0;exitDy=0;entryX=1;entryY=1;entryDx=0;entryDy=0;" edge="1" parent="1" source="0pXvA0TbID5tQFG2-Wnw-27" target="0pXvA0TbID5tQFG2-Wnw-28">
          <mxGeometry width="50" height="50" relative="1" as="geometry">
            <mxPoint x="320" y="310" as="sourcePoint" />
            <mxPoint x="370" y="260" as="targetPoint" />
          </mxGeometry>
        </mxCell>
        <mxCell id="0pXvA0TbID5tQFG2-Wnw-77" value="" style="endArrow=none;html=1;rounded=0;entryX=0;entryY=1;entryDx=0;entryDy=0;exitX=0.608;exitY=0;exitDx=0;exitDy=0;exitPerimeter=0;" edge="1" parent="1" source="0pXvA0TbID5tQFG2-Wnw-27" target="0pXvA0TbID5tQFG2-Wnw-25">
          <mxGeometry width="50" height="50" relative="1" as="geometry">
            <mxPoint x="550" y="380" as="sourcePoint" />
            <mxPoint x="600" y="330" as="targetPoint" />
          </mxGeometry>
        </mxCell>
        <mxCell id="0pXvA0TbID5tQFG2-Wnw-78" value="" style="endArrow=none;html=1;rounded=0;entryX=0.5;entryY=1;entryDx=0;entryDy=0;" edge="1" parent="1" target="0pXvA0TbID5tQFG2-Wnw-27">
          <mxGeometry width="50" height="50" relative="1" as="geometry">
            <mxPoint x="525" y="510" as="sourcePoint" />
            <mxPoint x="570" y="620" as="targetPoint" />
          </mxGeometry>
        </mxCell>
        <mxCell id="0pXvA0TbID5tQFG2-Wnw-79" value="" style="endArrow=none;html=1;rounded=0;exitX=0.875;exitY=1;exitDx=0;exitDy=0;exitPerimeter=0;entryX=0;entryY=0;entryDx=0;entryDy=0;" edge="1" parent="1" source="0pXvA0TbID5tQFG2-Wnw-27" target="0pXvA0TbID5tQFG2-Wnw-16">
          <mxGeometry width="50" height="50" relative="1" as="geometry">
            <mxPoint x="570" y="520" as="sourcePoint" />
            <mxPoint x="620" y="470" as="targetPoint" />
          </mxGeometry>
        </mxCell>
        <mxCell id="0pXvA0TbID5tQFG2-Wnw-80" value="" style="endArrow=none;html=1;rounded=0;exitX=1;exitY=0.383;exitDx=0;exitDy=0;exitPerimeter=0;entryX=0;entryY=0.5;entryDx=0;entryDy=0;" edge="1" parent="1" source="0pXvA0TbID5tQFG2-Wnw-27" target="0pXvA0TbID5tQFG2-Wnw-29">
          <mxGeometry width="50" height="50" relative="1" as="geometry">
            <mxPoint x="590" y="390" as="sourcePoint" />
            <mxPoint x="640" y="340" as="targetPoint" />
          </mxGeometry>
        </mxCell>
      </root>
    </mxGraphModel>
  </diagram>
</mxfile>
